<svg xmlns="http://www.w3.org/2000/svg" xml:space="preserve" id="training-schedule" x="0" y="0" enable-background="new 0 0 52 52" version="1.1" viewBox="0 0 52 52">
  <g id="_x38_1">
    <path fill="#c6c6f7" d="M49.9,11.8v34.3c0,2.1-1.7,3.9-3.9,3.9H6c-2.1,0-3.9-1.7-3.9-3.9V11.8c0-2.1,1.7-3.9,3.9-3.9h40
		C48.1,7.9,49.9,9.7,49.9,11.8z"></path>
    <path fill="#deddff" d="M49.9,8.9v34.3c0,2.1-1.7,3.9-3.9,3.9H6c-2.1,0-3.9-1.7-3.9-3.9V8.9C2.1,6.7,3.9,5,6,5h40
		C48.1,5,49.9,6.7,49.9,8.9z"></path>
    <path fill="#c6c6f7" d="M49.9,16.8V9.5c0-2.1-1.7-3.9-3.9-3.9H6c-2.1,0-3.9,1.7-3.9,3.9v7.3H49.9z"></path>
    <path fill="#e83d62" d="M49.9,14.4V8.9C49.9,6.7,48.1,5,46,5H6C3.9,5,2.1,6.7,2.1,8.9v5.6H49.9z"></path>
    <path fill="#ce2955" d="M8.7,5C6.5,5,4.8,6.8,4.8,8.9v5.5H2.1V8.9C2.1,6.8,3.9,5,6,5H8.7z"></path>
    <path fill="#5b5e8b" d="M13.1,3.4v6.7c0,0.8-0.6,1.4-1.4,1.4c-0.8,0-1.4-0.6-1.4-1.4V3.4C10.4,2.6,11,2,11.7,2
			C12.5,2,13.1,2.6,13.1,3.4z"></path>
    <path fill="#312e4b" d="M12.4,11.3c-0.2,0.1-0.4,0.2-0.7,0.2c-0.8,0-1.4-0.6-1.4-1.4V3.4C10.4,2.6,11,2,11.7,2c0.3,0,0.5,0.1,0.7,0.2
			c-0.4,0.2-0.7,0.7-0.7,1.2v6.7C11.7,10.6,12,11.1,12.4,11.3z"></path>
    <path fill="#5b5e8b" d="M41.7,3.4v6.7c0,0.8-0.6,1.4-1.4,1.4c-0.8,0-1.4-0.6-1.4-1.4V3.4c0-0.8,0.6-1.4,1.4-1.4
			C41,2,41.7,2.6,41.7,3.4z"></path>
    <path fill="#312e4b" d="M41,11.3c-0.2,0.1-0.4,0.2-0.7,0.2c-0.8,0-1.4-0.6-1.4-1.4V3.4c0-0.8,0.6-1.4,1.4-1.4c0.3,0,0.5,0.1,0.7,0.2
			c-0.4,0.2-0.7,0.7-0.7,1.2v6.7C40.3,10.6,40.5,11.1,41,11.3z"></path>
    <g>
      <path fill="#fcb73e" d="M43.6,38.5v1.8H32.5c-0.7,0-1.3-0.3-1.7-0.7l-13-13l-3.2-3.2l3.1-3.1l2.7-2.7c1-1,2.7-1.1,3.7-0.1
				c0.9,0.9,0.7,1.9,0.7,2.1c0,2.1,1.7,3.8,3.8,3.8h4.2c0.7,0,1.2,0.5,1.4,1.1l1.7,7c0.4,1.7,1.9,2.8,3.5,2.8c0.7,0,1.3,0.1,1.8,0.4
				C42.7,35.5,43.6,36.9,43.6,38.5z"></path>
      <path fill="#fd982e" d="M43.6,38.9v1.4H32.5c-0.7,0-1.3-0.3-1.7-0.7l-13-13l-3.2-3.2l1-1l2.8,2.8l13,13c0.5,0.4,1.1,0.7,1.7,0.7
				H43.6z"></path>
      <path fill="#5b5e8b" d="M13.3,27.4l15.5,15.5c0.6,0.6,1.3,0.9,2.2,0.9h10.8c1,0,1.8-0.8,1.8-1.8v-1.6H32.5c-0.6,0-1.3-0.3-1.7-0.7
				L14.6,23.5l-1.3,1.3C12.6,25.5,12.6,26.6,13.3,27.4z"></path>
      <path fill="#312e4b" d="M43.6,42.1c0,1-0.8,1.7-1.8,1.7H31c-0.8,0-1.6-0.3-2.1-0.9L13.3,27.4c-0.7-0.7-0.7-1.9,0-2.6l0.4-0.4
				c-0.1,0.5,0.1,1.1,0.5,1.5l15.5,15.5c0.6,0.6,1.3,0.9,2.1,0.9h10.8C43.1,42.3,43.4,42.2,43.6,42.1z"></path>
      <path fill="#fd982e" d="M41.3 34.8h-4.9c-1.9 0-3.5-1.3-4-3.1l-2.2-8.3h2.7c.7 0 1.2.5 1.4 1.1l1.7 7.2c.4 1.6 1.8 2.7 3.4 2.6C40.1 34.4 40.7 34.5 41.3 34.8zM19.1 23.5c0 1.2-.5 2.3-1.3 3.1l-3.2-3.2 3.1-3.1C18.6 21.1 19.1 22.2 19.1 23.5z"></path>
      <path fill="#5b5e8b" d="M38.5 31.8c0 .3-.2.5-.5.5h-3.7c-.3 0-.5-.2-.5-.5 0-.3.2-.5.5-.5H38C38.3 31.3 38.5 31.6 38.5 31.8zM37.7 29.1c0 .3-.2.5-.5.5h-3.7c-.3 0-.5-.2-.5-.5 0-.3.2-.5.5-.5h3.7C37.4 28.6 37.7 28.8 37.7 29.1zM37 26.3c0 .3-.2.5-.5.5h-3.7c-.3 0-.5-.2-.5-.5 0-.3.2-.5.5-.5h3.7C36.8 25.8 37 26 37 26.3z"></path>
      <g>
        <path fill="#65b9ff" d="M16.3 35H7.1c-.4 0-.7-.3-.7-.7 0-.4.3-.7.7-.7h9.2c.4 0 .7.3.7.7C17 34.7 16.7 35 16.3 35zM15 38.8H9c-.4 0-.7-.3-.7-.7 0-.4.3-.7.7-.7h6c.4 0 .7.3.7.7C15.7 38.5 15.4 38.8 15 38.8zM18.2 38.8h-1c-.4 0-.7-.3-.7-.7 0-.4.3-.7.7-.7h1c.4 0 .7.3.7.7C18.9 38.5 18.6 38.8 18.2 38.8zM20.9 42.6h-9.2c-.4 0-.7-.3-.7-.7 0-.4.3-.7.7-.7h9.2c.4 0 .7.3.7.7C21.6 42.3 21.3 42.6 20.9 42.6z"></path>
        <g>
          <path fill="#3e7fff" d="M9 35H7.1c-.4 0-.7-.3-.7-.7 0-.4.3-.7.7-.7H9c-.4 0-.7.3-.7.7C8.4 34.7 8.7 35 9 35zM10.9 38.8H9c-.4 0-.7-.3-.7-.7 0-.4.3-.7.7-.7h1.9c-.4 0-.7.3-.7.7C10.3 38.5 10.6 38.8 10.9 38.8zM13.6 42.6h-1.9c-.4 0-.7-.3-.7-.7 0-.4.3-.7.7-.7h1.9c-.4 0-.7.3-.7.7C12.9 42.3 13.2 42.6 13.6 42.6z"></path>
        </g>
      </g>
    </g>
  </g>
</svg>
